<svg xmlns="http://www.w3.org/2000/svg" width="932" height="532" fill="none"><g filter="url(#a)"><path fill="#fff" d="M36 24c0-6.627 5.373-12 12-12h776c6.627 0 12 5.373 12 12v436c0 6.627-5.373 12-12 12H48c-6.627 0-12-5.373-12-12V24Z"/><path stroke="#EAECF0" d="M36.5 24c0-6.351 5.149-11.5 11.5-11.5h776c6.351 0 11.5 5.149 11.5 11.5v436c0 6.351-5.149 11.5-11.5 11.5H48c-6.351 0-11.5-5.149-11.5-11.5V24Z"/><path fill="#101828" d="M77.543 51.91h2.372v8.552c0 .937-.222 1.762-.665 2.473-.439.712-1.057 1.268-1.854 1.669-.797.396-1.728.594-2.793.594-1.07 0-2.003-.198-2.8-.594-.797-.4-1.415-.957-1.853-1.669-.44-.711-.659-1.536-.659-2.473v-8.553h2.372v8.355c0 .545.119 1.03.358 1.457.242.426.583.76 1.022 1.003.44.24.96.358 1.56.358.6 0 1.12-.119 1.56-.358a2.549 2.549 0 0 0 1.022-1.003c.239-.426.358-.912.358-1.457v-8.355Zm12.607 5.867-2.11.23a1.697 1.697 0 0 0-.313-.6 1.557 1.557 0 0 0-.588-.455c-.247-.115-.55-.172-.907-.172-.482 0-.887.104-1.215.313-.324.209-.483.48-.48.812a.85.85 0 0 0 .314.697c.217.179.575.326 1.074.44l1.675.359c.929.2 1.619.517 2.07.952.457.435.687 1.003.691 1.707a2.67 2.67 0 0 1-.543 1.636c-.354.469-.846.835-1.477 1.1-.63.264-1.355.396-2.173.396-1.202 0-2.17-.252-2.902-.754-.733-.508-1.17-1.213-1.31-2.116l2.256-.218c.102.444.32.778.652 1.004.332.226.765.339 1.297.339.55 0 .991-.113 1.324-.339.336-.226.505-.505.505-.837a.872.872 0 0 0-.326-.697c-.213-.183-.546-.324-.998-.422l-1.674-.352c-.942-.196-1.639-.526-2.09-.99-.452-.47-.676-1.061-.672-1.777-.004-.605.16-1.13.492-1.573.337-.447.804-.792 1.4-1.035.601-.247 1.294-.371 2.078-.371 1.15 0 2.056.245 2.716.735.665.49 1.076 1.153 1.234 1.988Zm6.466 7.415c-.985 0-1.835-.205-2.55-.614a4.155 4.155 0 0 1-1.644-1.751c-.383-.759-.575-1.652-.575-2.679 0-1.01.192-1.896.575-2.659a4.35 4.35 0 0 1 1.624-1.79c.695-.43 1.51-.645 2.448-.645.605 0 1.176.098 1.713.294.541.192 1.019.49 1.432.895.418.405.746.92.984 1.547.239.622.358 1.363.358 2.224v.71h-8.047v-1.56h5.83a2.489 2.489 0 0 0-.288-1.183 2.091 2.091 0 0 0-.787-.824c-.332-.2-.72-.3-1.163-.3-.473 0-.888.115-1.246.345a2.379 2.379 0 0 0-.838.895c-.196.366-.296.769-.3 1.208v1.361c0 .571.104 1.061.313 1.47.209.405.5.716.876.934.375.213.814.32 1.317.32a2.8 2.8 0 0 0 .914-.141c.272-.098.509-.241.71-.429.2-.187.35-.42.453-.696l2.16.242a3.368 3.368 0 0 1-.779 1.496c-.38.422-.865.75-1.458.985-.592.23-1.27.345-2.032.345Zm6.323-.192v-9.818h2.244v1.636h.102c.179-.567.486-1.003.92-1.31.439-.311.94-.467 1.502-.467.128 0 .271.007.429.02.162.008.296.023.402.044v2.129a2.42 2.42 0 0 0-.466-.09 4.285 4.285 0 0 0-.608-.045c-.421 0-.801.092-1.137.275a2.011 2.011 0 0 0-.787.748c-.191.32-.287.688-.287 1.106V65h-2.314Zm14.897-7.223-2.11.23a1.687 1.687 0 0 0-.313-.6 1.559 1.559 0 0 0-.588-.455c-.247-.115-.55-.172-.908-.172-.481 0-.886.104-1.214.313-.324.209-.484.48-.48.812a.851.851 0 0 0 .314.697c.217.179.575.326 1.073.44l1.675.359c.929.2 1.619.517 2.071.952.456.435.686 1.003.691 1.707a2.675 2.675 0 0 1-.544 1.636c-.353.469-.846.835-1.476 1.1-.631.264-1.355.396-2.174.396-1.201 0-2.169-.252-2.902-.754-.733-.508-1.169-1.213-1.31-2.116l2.256-.218c.103.444.32.778.652 1.004.333.226.765.339 1.298.339.55 0 .991-.113 1.323-.339.337-.226.505-.505.505-.837a.873.873 0 0 0-.326-.697c-.213-.183-.545-.324-.997-.422l-1.675-.352c-.942-.196-1.638-.526-2.09-.99-.452-.47-.675-1.061-.671-1.777-.004-.605.16-1.13.492-1.573.337-.447.803-.792 1.4-1.035.601-.247 1.293-.371 2.077-.371 1.151 0 2.056.245 2.717.735.665.49 1.076 1.153 1.234 1.988Zm10.866 7.415c-.959 0-1.79-.211-2.493-.633a4.298 4.298 0 0 1-1.636-1.77c-.384-.76-.575-1.645-.575-2.66 0-1.014.191-1.902.575-2.665a4.29 4.29 0 0 1 1.636-1.777c.703-.422 1.534-.633 2.493-.633.959 0 1.79.21 2.493.633a4.25 4.25 0 0 1 1.63 1.777c.388.763.582 1.651.582 2.665 0 1.015-.194 1.9-.582 2.66a4.258 4.258 0 0 1-1.63 1.77c-.703.422-1.534.633-2.493.633Zm.013-1.854c.52 0 .954-.143 1.304-.428.349-.29.609-.678.78-1.164a4.787 4.787 0 0 0 .262-1.623c0-.601-.088-1.144-.262-1.63-.171-.49-.431-.88-.78-1.17-.35-.29-.784-.434-1.304-.434-.533 0-.976.144-1.33.434-.349.29-.611.68-.786 1.17a4.911 4.911 0 0 0-.256 1.63c0 .596.086 1.138.256 1.623.175.486.437.874.786 1.164.354.285.797.428 1.33.428Zm15.091-8.156L140.31 65h-2.557l-3.496-9.818h2.467l2.256 7.293h.103l2.263-7.293h2.46Zm5.614 10.01c-.984 0-1.834-.205-2.55-.614a4.157 4.157 0 0 1-1.643-1.751c-.383-.759-.575-1.652-.575-2.679 0-1.01.192-1.896.575-2.659a4.35 4.35 0 0 1 1.624-1.79c.694-.43 1.51-.645 2.448-.645.605 0 1.176.098 1.713.294a3.88 3.88 0 0 1 1.432.895c.417.405.745.92.984 1.547.239.622.358 1.363.358 2.224v.71h-8.048v-1.56h5.83a2.48 2.48 0 0 0-.288-1.183 2.085 2.085 0 0 0-.786-.824c-.332-.2-.72-.3-1.163-.3-.473 0-.889.115-1.247.345a2.376 2.376 0 0 0-.837.895c-.196.366-.296.769-.3 1.208v1.361c0 .571.104 1.061.313 1.47.209.405.5.716.875.934.375.213.814.32 1.317.32.337 0 .642-.048.914-.141.273-.098.51-.241.71-.429.2-.187.351-.42.454-.696l2.16.242a3.36 3.36 0 0 1-.78 1.496c-.379.422-.865.75-1.457.985-.592.23-1.27.345-2.033.345Zm6.324-.192v-9.818h2.243v1.636h.102c.179-.567.486-1.003.921-1.31.439-.311.94-.467 1.502-.467.128 0 .271.007.428.02.162.008.297.023.403.044v2.129a2.433 2.433 0 0 0-.467-.09 4.272 4.272 0 0 0-.607-.045c-.422 0-.801.092-1.138.275a2.015 2.015 0 0 0-.786.748c-.192.32-.287.688-.287 1.106V65h-2.314Zm16.504-9.818v1.79h-5.644v-1.79h5.644Zm-4.251-2.352h2.314v9.217c0 .311.047.55.141.716a.76.76 0 0 0 .383.332c.158.06.333.09.524.09.145 0 .277-.011.397-.032.123-.022.217-.04.281-.058l.39 1.81c-.124.042-.301.089-.531.14a4.34 4.34 0 0 1-.831.09 3.776 3.776 0 0 1-1.566-.263 2.441 2.441 0 0 1-1.106-.907c-.268-.41-.4-.921-.396-1.535v-9.6ZM174.183 65v-9.818h2.314V65h-2.314Zm1.163-11.212c-.366 0-.681-.121-.946-.364a1.175 1.175 0 0 1-.396-.889c0-.349.132-.645.396-.888.265-.247.58-.37.946-.37.371 0 .686.123.946.37.265.243.397.54.397.889 0 .345-.132.64-.397.888-.26.243-.575.364-.946.364ZM178.876 65v-9.818h2.212v1.668h.115a2.606 2.606 0 0 1 1.016-1.317c.473-.32 1.038-.479 1.694-.479.665 0 1.225.162 1.681.486.461.32.785.756.972 1.31h.102c.218-.545.584-.98 1.1-1.304.52-.328 1.135-.492 1.847-.492.903 0 1.641.285 2.212.856.571.572.856 1.405.856 2.5V65h-2.32v-6.232c0-.61-.162-1.055-.486-1.336-.324-.286-.72-.428-1.189-.428-.558 0-.995.174-1.31.524-.311.345-.467.794-.467 1.348V65h-2.269v-6.328c0-.507-.153-.912-.46-1.215-.303-.302-.699-.453-1.189-.453-.332 0-.635.085-.908.255-.272.166-.49.403-.652.71a2.215 2.215 0 0 0-.243 1.06V65h-2.314Zm20.501.192c-.984 0-1.834-.205-2.55-.614a4.157 4.157 0 0 1-1.643-1.751c-.383-.759-.575-1.652-.575-2.679 0-1.01.192-1.896.575-2.659a4.35 4.35 0 0 1 1.624-1.79c.694-.43 1.51-.645 2.448-.645.605 0 1.176.098 1.713.294a3.88 3.88 0 0 1 1.432.895c.417.405.745.92.984 1.547.239.622.358 1.363.358 2.224v.71h-8.048v-1.56h5.83a2.48 2.48 0 0 0-.288-1.183 2.085 2.085 0 0 0-.786-.824c-.332-.2-.72-.3-1.163-.3-.473 0-.889.115-1.247.345a2.376 2.376 0 0 0-.837.895c-.196.366-.296.769-.3 1.208v1.361c0 .571.104 1.061.313 1.47.209.405.501.716.876.934.375.213.813.32 1.316.32.337 0 .642-.048.914-.141.273-.098.51-.241.71-.429.2-.187.351-.42.454-.696l2.16.242a3.36 3.36 0 0 1-.78 1.496c-.379.422-.865.75-1.457.985-.592.23-1.27.345-2.033.345Z"/><path stroke="#F2F4F7" stroke-linecap="round" d="M68.5 82.5h735M68.5 150.6h735M68.5 216.2h735M68.5 281.8h735M68.5 347.4h735M68.5 413h735"/><path fill="#475467" d="M96.75 426.273h1.056v6.238c0 .557-.102 1.03-.307 1.419-.204.39-.493.685-.865.887-.372.201-.81.302-1.317.302-.477 0-.901-.086-1.274-.26a2.099 2.099 0 0 1-.878-.75c-.213-.323-.32-.708-.32-1.154h1.04c0 .247.062.463.184.647.125.182.295.324.511.426.216.103.462.154.737.154.304 0 .563-.064.776-.192.213-.128.375-.315.486-.562.114-.25.17-.556.17-.917v-6.238Zm4.964 8.88c-.415 0-.791-.078-1.129-.234a1.935 1.935 0 0 1-.806-.686c-.199-.301-.298-.665-.298-1.091 0-.375.074-.679.221-.912.148-.236.346-.42.593-.554a3.12 3.12 0 0 1 .818-.298 10.1 10.1 0 0 1 .908-.162c.397-.051.72-.09.967-.115.25-.029.432-.075.545-.141.117-.065.175-.179.175-.341v-.034c0-.42-.115-.747-.345-.98-.227-.233-.573-.349-1.036-.349-.48 0-.856.105-1.129.315-.273.21-.464.435-.575.673l-.955-.341c.17-.397.398-.707.682-.929.287-.224.6-.38.938-.468a3.888 3.888 0 0 1 1.005-.137c.211 0 .452.026.725.077.275.048.541.149.797.303.258.153.473.385.643.694.171.31.256.725.256 1.245V435h-1.006v-.886h-.051a1.77 1.77 0 0 1-.341.456 1.973 1.973 0 0 1-.635.413c-.264.114-.587.17-.967.17Zm.153-.903c.398 0 .733-.078 1.006-.234.275-.157.483-.358.622-.605.142-.248.213-.508.213-.78v-.921c-.043.051-.136.098-.281.141a4.65 4.65 0 0 1-.494.106 21.368 21.368 0 0 1-.964.128 3.88 3.88 0 0 0-.732.166 1.259 1.259 0 0 0-.546.337c-.136.148-.204.349-.204.605 0 .35.129.614.387.793.262.176.593.264.993.264Zm5.688-3.188V435h-1.006v-6.545h.972v1.022h.085a1.88 1.88 0 0 1 .699-.801c.313-.204.716-.307 1.21-.307.443 0 .831.091 1.164.273.332.179.591.452.775.818.185.364.277.824.277 1.381V435h-1.006v-4.091c0-.514-.133-.915-.4-1.202-.267-.289-.634-.434-1.1-.434-.321 0-.607.069-.86.209-.25.139-.448.342-.593.609-.145.267-.217.591-.217.971ZM153.148 435v-8.727h5.233v.937h-4.176v2.949h3.784v.938h-3.784V435h-1.057Zm9.17.136c-.63 0-1.175-.139-1.632-.417a2.808 2.808 0 0 1-1.052-1.176c-.245-.506-.367-1.094-.367-1.765 0-.67.122-1.261.367-1.772.247-.515.59-.915 1.031-1.202.443-.29.96-.435 1.551-.435.341 0 .677.057 1.01.171.332.113.635.298.908.554.272.253.49.588.652 1.005.161.418.242.932.242 1.543v.426h-5.045v-.869h4.023c0-.369-.074-.699-.222-.989a1.67 1.67 0 0 0-.622-.686 1.746 1.746 0 0 0-.946-.251c-.401 0-.747.099-1.04.298a1.96 1.96 0 0 0-.669.767 2.254 2.254 0 0 0-.234 1.014v.58c0 .494.085.913.255 1.257.174.341.414.601.721.78.306.176.663.264 1.069.264.264 0 .503-.037.716-.111.216-.077.402-.19.558-.341a1.55 1.55 0 0 0 .363-.571l.971.273a2.158 2.158 0 0 1-.515.869 2.52 2.52 0 0 1-.895.58 3.33 3.33 0 0 1-1.198.204Zm4.377-.136v-8.727h1.005v3.221h.086c.073-.113.176-.258.306-.434.134-.179.324-.338.571-.478.25-.142.588-.213 1.015-.213.551 0 1.037.138 1.457.414.42.275.749.666.984 1.172.236.505.354 1.102.354 1.789 0 .694-.118 1.294-.354 1.803-.235.506-.562.898-.98 1.176-.417.276-.899.413-1.444.413-.421 0-.757-.069-1.01-.208a1.867 1.867 0 0 1-.584-.482 6.147 6.147 0 0 1-.315-.452h-.12V435h-.971Zm.988-3.273c0 .495.073.931.218 1.309.144.375.356.669.635.882.278.21.619.315 1.022.315.421 0 .772-.111 1.053-.332.284-.225.497-.526.639-.904.145-.381.217-.804.217-1.27 0-.46-.071-.875-.213-1.244a1.923 1.923 0 0 0-.635-.882c-.281-.219-.635-.328-1.061-.328-.409 0-.753.103-1.031.311a1.864 1.864 0 0 0-.631.861c-.142.366-.213.794-.213 1.282ZM213.288 426.273h1.261l2.966 7.244h.102l2.966-7.244h1.261V435h-.988v-6.631h-.086L218.043 435h-.954l-2.728-6.631h-.085V435h-.988v-8.727Zm12.465 8.88c-.415 0-.791-.078-1.129-.234a1.942 1.942 0 0 1-.806-.686c-.198-.301-.298-.665-.298-1.091 0-.375.074-.679.222-.912.147-.236.345-.42.592-.554a3.12 3.12 0 0 1 .818-.298 10.1 10.1 0 0 1 .908-.162c.398-.051.72-.09.967-.115.25-.029.432-.075.546-.141.116-.065.174-.179.174-.341v-.034c0-.42-.115-.747-.345-.98-.227-.233-.572-.349-1.035-.349-.48 0-.857.105-1.13.315-.272.21-.464.435-.575.673l-.954-.341c.17-.397.397-.707.681-.929.287-.224.6-.38.938-.468a3.89 3.89 0 0 1 1.006-.137 4 4 0 0 1 .724.077c.276.048.541.149.797.303.258.153.473.385.643.694.171.31.256.725.256 1.245V435h-1.006v-.886h-.051a1.77 1.77 0 0 1-.341.456c-.159.162-.37.299-.635.413-.264.114-.586.17-.967.17Zm.153-.903c.398 0 .733-.078 1.006-.234a1.597 1.597 0 0 0 .835-1.385v-.921c-.042.051-.136.098-.281.141a4.65 4.65 0 0 1-.494.106 21.302 21.302 0 0 1-.963.128c-.262.034-.506.09-.733.166a1.265 1.265 0 0 0-.546.337c-.136.148-.204.349-.204.605 0 .35.129.614.388.793.261.176.592.264.992.264Zm4.683.75v-6.545h.971v.988h.068c.12-.324.336-.586.648-.788a1.906 1.906 0 0 1 1.057-.303 10.862 10.862 0 0 1 .528.017v1.023a3.308 3.308 0 0 0-.234-.038 2.292 2.292 0 0 0-.379-.03 1.79 1.79 0 0 0-.853.2 1.468 1.468 0 0 0-.801 1.334V435h-1.005ZM274.744 435h-1.108l3.205-8.727h1.091l3.204 8.727h-1.108l-2.608-7.347h-.068L274.744 435Zm.409-3.409h4.466v.937h-4.466v-.937Zm7.206 5.864v-9h.972v1.039h.119a9.15 9.15 0 0 1 .307-.434c.133-.179.324-.338.571-.478.25-.142.588-.213 1.014-.213.551 0 1.037.138 1.458.414.42.275.748.666.984 1.172.236.505.354 1.102.354 1.789 0 .694-.118 1.294-.354 1.803-.236.506-.563.898-.98 1.176-.418.276-.899.413-1.445.413-.42 0-.757-.069-1.01-.208a1.878 1.878 0 0 1-.584-.482 6.475 6.475 0 0 1-.315-.452h-.085v3.461h-1.006Zm.989-5.728c0 .495.072.931.217 1.309.145.375.357.669.635.882.278.21.619.315 1.023.315.42 0 .771-.111 1.052-.332.284-.225.498-.526.64-.904.144-.381.217-.804.217-1.27 0-.46-.071-.875-.213-1.244a1.923 1.923 0 0 0-.635-.882c-.281-.219-.635-.328-1.061-.328-.409 0-.753.103-1.031.311-.279.204-.489.491-.631.861-.142.366-.213.794-.213 1.282Zm6.324 3.273v-6.545h.971v.988h.068c.12-.324.336-.586.648-.788a1.906 1.906 0 0 1 1.057-.303 10.862 10.862 0 0 1 .528.017v1.023a3.308 3.308 0 0 0-.234-.038 2.292 2.292 0 0 0-.379-.03 1.79 1.79 0 0 0-.853.2 1.468 1.468 0 0 0-.801 1.334V435h-1.005ZM333.479 426.273h1.261l2.966 7.244h.103l2.966-7.244h1.261V435h-.989v-6.631h-.085L338.235 435h-.955l-2.727-6.631h-.085V435h-.989v-8.727Zm12.466 8.88c-.415 0-.792-.078-1.13-.234a1.94 1.94 0 0 1-.805-.686c-.199-.301-.298-.665-.298-1.091 0-.375.074-.679.221-.912.148-.236.345-.42.593-.554.247-.133.519-.233.818-.298.301-.068.603-.122.907-.162.398-.051.721-.09.968-.115.25-.029.432-.075.545-.141.117-.065.175-.179.175-.341v-.034c0-.42-.115-.747-.345-.98-.228-.233-.573-.349-1.036-.349-.48 0-.856.105-1.129.315-.273.21-.465.435-.575.673l-.955-.341c.171-.397.398-.707.682-.929.287-.224.599-.38.937-.468a3.896 3.896 0 0 1 1.006-.137c.21 0 .452.026.725.077.275.048.541.149.796.303.259.153.473.385.644.694.17.31.256.725.256 1.245V435h-1.006v-.886h-.051a1.77 1.77 0 0 1-.341.456 1.973 1.973 0 0 1-.635.413c-.264.114-.587.17-.967.17Zm.153-.903c.398 0 .733-.078 1.006-.234.275-.157.483-.358.622-.605.142-.248.213-.508.213-.78v-.921c-.043.051-.136.098-.281.141-.142.04-.307.075-.495.106a20.68 20.68 0 0 1-.963.128 3.91 3.91 0 0 0-.733.166 1.261 1.261 0 0 0-.545.337c-.136.148-.205.349-.205.605 0 .35.13.614.388.793.261.176.592.264.993.264Zm5.096 3.205c-.171 0-.323-.015-.456-.043a1.19 1.19 0 0 1-.277-.077l.255-.886c.245.062.461.085.648.068a.778.778 0 0 0 .499-.251c.147-.148.282-.388.404-.721l.188-.511-2.421-6.579h1.091l1.807 5.215H353l1.807-5.215h1.091l-2.778 7.5c-.125.338-.28.617-.465.839a1.743 1.743 0 0 1-.643.499 1.984 1.984 0 0 1-.818.162ZM400.098 426.273h1.057v6.238c0 .557-.102 1.03-.307 1.419-.204.39-.492.685-.865.887-.372.201-.811.302-1.316.302a2.98 2.98 0 0 1-1.275-.26 2.097 2.097 0 0 1-.877-.75c-.213-.323-.32-.708-.32-1.154h1.04c0 .247.061.463.183.647.125.182.295.324.511.426.216.103.462.154.738.154.304 0 .562-.064.775-.192.213-.128.375-.315.486-.562.114-.25.17-.556.17-.917v-6.238Zm7.164 6.051v-3.869h1.005V435h-1.005v-1.108h-.068a2.154 2.154 0 0 1-.716.848c-.324.23-.733.345-1.228.345-.409 0-.772-.089-1.091-.268a1.885 1.885 0 0 1-.75-.818c-.181-.367-.272-.829-.272-1.385v-4.159h1.005v4.09c0 .478.134.858.401 1.143.27.284.614.426 1.031.426.25 0 .505-.064.763-.192.261-.128.48-.324.656-.588.179-.264.269-.601.269-1.01Zm3.853-1.262V435h-1.006v-6.545h.972v1.022h.085a1.88 1.88 0 0 1 .699-.801c.313-.204.716-.307 1.21-.307.444 0 .831.091 1.164.273.332.179.591.452.775.818.185.364.277.824.277 1.381V435h-1.005v-4.091c0-.514-.134-.915-.401-1.202-.267-.289-.634-.434-1.099-.434-.321 0-.608.069-.861.209-.25.139-.448.342-.593.609-.144.267-.217.591-.217.971ZM460.275 426.273h1.057v6.238c0 .557-.102 1.03-.307 1.419-.204.39-.493.685-.865.887-.372.201-.811.302-1.317.302-.477 0-.902-.086-1.274-.26a2.1 2.1 0 0 1-.878-.75c-.213-.323-.319-.708-.319-1.154h1.04c0 .247.061.463.183.647.125.182.295.324.511.426.216.103.462.154.737.154.304 0 .563-.064.776-.192.213-.128.375-.315.486-.562.113-.25.17-.556.17-.917v-6.238Zm7.164 6.051v-3.869h1.005V435h-1.005v-1.108h-.069a2.146 2.146 0 0 1-.716.848c-.323.23-.732.345-1.227.345-.409 0-.773-.089-1.091-.268a1.885 1.885 0 0 1-.75-.818c-.182-.367-.272-.829-.272-1.385v-4.159h1.005v4.09c0 .478.134.858.401 1.143.27.284.613.426 1.031.426.25 0 .504-.064.763-.192.261-.128.48-.324.656-.588.179-.264.269-.601.269-1.01Zm3.853-6.051V435h-1.006v-8.727h1.006ZM513.354 435h-1.108l3.204-8.727h1.091l3.205 8.727h-1.108l-2.608-7.347h-.068L513.354 435Zm.409-3.409h4.466v.937h-4.466v-.937Zm11.331.733v-3.869h1.006V435h-1.006v-1.108h-.068a2.154 2.154 0 0 1-.716.848c-.324.23-.733.345-1.227.345-.41 0-.773-.089-1.091-.268a1.873 1.873 0 0 1-.75-.818c-.182-.367-.273-.829-.273-1.385v-4.159h1.006v4.09c0 .478.133.858.4 1.143.27.284.614.426 1.031.426.25 0 .505-.064.763-.192a1.66 1.66 0 0 0 .656-.588c.179-.264.269-.601.269-1.01Zm5.49 5.267c-.486 0-.904-.063-1.253-.188a2.664 2.664 0 0 1-.874-.485 2.668 2.668 0 0 1-.55-.64l.802-.562c.091.119.206.256.345.409.139.156.329.291.571.405.244.116.564.175.959.175.528 0 .964-.128 1.308-.384.344-.256.515-.656.515-1.202v-1.329h-.085a5.56 5.56 0 0 1-.315.443 1.792 1.792 0 0 1-.58.464c-.25.134-.588.201-1.014.201a2.73 2.73 0 0 1-1.423-.375 2.628 2.628 0 0 1-.993-1.091c-.242-.477-.362-1.057-.362-1.739 0-.67.118-1.254.353-1.751.236-.5.564-.887.985-1.159.42-.276.906-.414 1.457-.414.426 0 .764.071 1.014.213.253.14.446.299.58.478.136.176.241.321.315.434h.103v-1.039h.971v6.733c0 .562-.128 1.019-.383 1.372a2.18 2.18 0 0 1-1.023.779 3.851 3.851 0 0 1-1.423.252Zm-.034-3.597c.403 0 .744-.092 1.022-.277.279-.184.49-.45.635-.797.145-.346.218-.761.218-1.244 0-.471-.071-.888-.214-1.248a1.87 1.87 0 0 0-.63-.848c-.279-.205-.622-.307-1.031-.307-.427 0-.782.108-1.066.324a1.966 1.966 0 0 0-.635.869 3.366 3.366 0 0 0-.209 1.21c0 .455.071.857.214 1.206.144.347.357.619.639.818.284.196.636.294 1.057.294ZM579.582 428.455a1.337 1.337 0 0 0-.622-1.006c-.364-.239-.81-.358-1.338-.358-.386 0-.724.062-1.014.187a1.611 1.611 0 0 0-.673.516 1.23 1.23 0 0 0-.239.746c0 .233.055.433.166.601.114.164.259.302.435.413.176.108.361.197.554.268.193.069.37.124.532.167l.887.238c.227.06.48.142.758.247.282.106.55.249.806.431.258.179.471.409.639.69.167.281.251.627.251 1.036 0 .471-.123.897-.37 1.278-.245.381-.603.683-1.074.908-.469.224-1.039.336-1.709.336-.625 0-1.166-.1-1.624-.302a2.596 2.596 0 0 1-1.074-.844 2.411 2.411 0 0 1-.438-1.257h1.09c.029.33.14.602.333.818a1.8 1.8 0 0 0 .741.477c.301.103.625.154.972.154a2.86 2.86 0 0 0 1.087-.196c.321-.134.575-.318.762-.554a1.31 1.31 0 0 0 .282-.835c0-.29-.081-.526-.243-.708a1.781 1.781 0 0 0-.64-.443 6.598 6.598 0 0 0-.856-.298l-1.074-.307c-.682-.196-1.222-.476-1.619-.84-.398-.363-.597-.839-.597-1.427 0-.489.132-.915.396-1.279.267-.366.625-.65 1.074-.852a3.636 3.636 0 0 1 1.513-.307c.563 0 1.063.101 1.5.303a2.6 2.6 0 0 1 1.04.818c.258.347.395.74.409 1.181h-1.023Zm5.488 6.681c-.631 0-1.175-.139-1.632-.417a2.803 2.803 0 0 1-1.053-1.176c-.244-.506-.366-1.094-.366-1.765 0-.67.122-1.261.366-1.772a2.888 2.888 0 0 1 1.031-1.202c.444-.29.961-.435 1.552-.435.34 0 .677.057 1.009.171.333.113.635.298.908.554.273.253.49.588.652 1.005.162.418.243.932.243 1.543v.426h-5.045v-.869h4.022c0-.369-.074-.699-.221-.989a1.677 1.677 0 0 0-.622-.686 1.749 1.749 0 0 0-.946-.251c-.401 0-.748.099-1.04.298a1.96 1.96 0 0 0-.669.767 2.242 2.242 0 0 0-.235 1.014v.58c0 .494.086.913.256 1.257.173.341.413.601.72.78.307.176.664.264 1.07.264.264 0 .503-.037.716-.111.216-.077.402-.19.558-.341.156-.153.277-.344.362-.571l.972.273a2.16 2.16 0 0 1-.516.869c-.241.247-.54.441-.895.58a3.325 3.325 0 0 1-1.197.204Zm4.24 2.319v-9h.971v1.039h.12a9.15 9.15 0 0 1 .307-.434c.133-.179.323-.338.571-.478.25-.142.588-.213 1.014-.213.551 0 1.037.138 1.457.414.421.275.749.666.985 1.172.235.505.353 1.102.353 1.789 0 .694-.118 1.294-.353 1.803-.236.506-.563.898-.981 1.176-.417.276-.899.413-1.444.413-.421 0-.757-.069-1.01-.208a1.867 1.867 0 0 1-.584-.482 6.475 6.475 0 0 1-.315-.452h-.085v3.461h-1.006Zm.988-5.728c0 .495.073.931.218 1.309.145.375.356.669.635.882.278.21.619.315 1.022.315.421 0 .772-.111 1.053-.332.284-.225.497-.526.639-.904.145-.381.218-.804.218-1.27 0-.46-.071-.875-.213-1.244a1.93 1.93 0 0 0-.635-.882c-.282-.219-.635-.328-1.062-.328-.409 0-.752.103-1.031.311a1.862 1.862 0 0 0-.63.861c-.142.366-.214.794-.214 1.282ZM643.637 430.636c0 .921-.166 1.716-.499 2.387-.332.67-.788 1.187-1.367 1.551-.58.364-1.242.545-1.986.545-.745 0-1.406-.181-1.986-.545-.58-.364-1.036-.881-1.368-1.551-.332-.671-.498-1.466-.498-2.387 0-.92.166-1.716.498-2.386.332-.67.788-1.188 1.368-1.551.58-.364 1.241-.546 1.986-.546.744 0 1.406.182 1.986.546.579.363 1.035.881 1.367 1.551.333.67.499 1.466.499 2.386Zm-1.023 0c0-.755-.126-1.393-.379-1.913-.25-.52-.589-.913-1.018-1.18a2.645 2.645 0 0 0-1.432-.401c-.529 0-1.007.134-1.436.401-.426.267-.766.66-1.019 1.18-.25.52-.375 1.158-.375 1.913 0 .756.125 1.394.375 1.914.253.52.593.913 1.019 1.18.429.267.907.401 1.436.401.528 0 1.005-.134 1.432-.401.429-.267.768-.66 1.018-1.18.253-.52.379-1.158.379-1.914Zm5.323 4.5c-.614 0-1.142-.145-1.585-.434a2.823 2.823 0 0 1-1.023-1.198c-.239-.508-.358-1.089-.358-1.743 0-.664.122-1.251.366-1.76a2.9 2.9 0 0 1 1.032-1.197c.443-.29.96-.435 1.551-.435.46 0 .875.086 1.244.256s.672.409.908.716.382.665.439 1.074h-1.006a1.56 1.56 0 0 0-.511-.793c-.262-.233-.614-.349-1.057-.349-.392 0-.736.102-1.031.307a1.995 1.995 0 0 0-.687.856c-.161.367-.242.797-.242 1.291 0 .506.079.946.238 1.321.162.375.389.666.682.874.295.207.642.311 1.04.311.261 0 .498-.045.711-.136.214-.091.394-.222.542-.392a1.52 1.52 0 0 0 .315-.614h1.006a2.34 2.34 0 0 1-.422 1.044 2.364 2.364 0 0 1-.882.733c-.364.179-.787.268-1.27.268Zm6.89-6.681v.852h-3.392v-.852h3.392Zm-2.403-1.569h1.006v6.239c0 .284.041.497.123.639a.637.637 0 0 0 .324.281c.134.046.274.069.422.069.111 0 .202-.006.273-.017l.17-.035.205.904a2.2 2.2 0 0 1-.75.119c-.284 0-.563-.061-.835-.183a1.659 1.659 0 0 1-.674-.558c-.176-.25-.264-.566-.264-.946v-6.512ZM703.066 426.273V435h-1.023l-4.755-6.852h-.086V435h-1.056v-8.727h1.022l4.773 6.869h.085v-6.869h1.04Zm4.637 8.863c-.59 0-1.109-.14-1.555-.422a2.863 2.863 0 0 1-1.04-1.18c-.247-.506-.37-1.097-.37-1.773 0-.681.123-1.277.37-1.785.25-.509.597-.904 1.04-1.185.446-.281.965-.422 1.555-.422.591 0 1.108.141 1.552.422.446.281.792.676 1.039 1.185.25.508.375 1.104.375 1.785 0 .676-.125 1.267-.375 1.773a2.82 2.82 0 0 1-1.039 1.18c-.444.282-.961.422-1.552.422Zm0-.903c.449 0 .819-.115 1.108-.345.29-.23.505-.533.644-.908a3.48 3.48 0 0 0 .209-1.219c0-.437-.07-.845-.209-1.223a2.063 2.063 0 0 0-.644-.916c-.289-.233-.659-.349-1.108-.349-.448 0-.818.116-1.108.349a2.07 2.07 0 0 0-.643.916 3.518 3.518 0 0 0-.209 1.223c0 .438.07.844.209 1.219.139.375.354.678.643.908.29.23.66.345 1.108.345Zm9.619-5.778-2.42 6.545h-1.023l-2.42-6.545h1.091l1.807 5.215h.068l1.807-5.215h1.09ZM761.094 435h-2.693v-8.727h2.812c.847 0 1.571.174 2.173.524a3.422 3.422 0 0 1 1.385 1.496c.321.647.482 1.423.482 2.326 0 .909-.162 1.692-.486 2.348a3.455 3.455 0 0 1-1.415 1.509c-.619.349-1.372.524-2.258.524Zm-1.637-.938h1.569c.721 0 1.319-.139 1.794-.417a2.58 2.58 0 0 0 1.061-1.189c.233-.514.349-1.126.349-1.837 0-.704-.115-1.311-.345-1.819a2.54 2.54 0 0 0-1.031-1.176c-.458-.276-1.027-.414-1.709-.414h-1.688v6.852Zm10.176 1.074c-.63 0-1.174-.139-1.632-.417a2.808 2.808 0 0 1-1.052-1.176c-.245-.506-.367-1.094-.367-1.765 0-.67.122-1.261.367-1.772a2.888 2.888 0 0 1 1.031-1.202c.443-.29.96-.435 1.551-.435.341 0 .678.057 1.01.171.333.113.635.298.908.554.273.253.49.588.652 1.005.162.418.243.932.243 1.543v.426h-5.046v-.869h4.023c0-.369-.074-.699-.222-.989a1.67 1.67 0 0 0-.622-.686 1.746 1.746 0 0 0-.946-.251c-.4 0-.747.099-1.04.298a1.976 1.976 0 0 0-.669.767 2.254 2.254 0 0 0-.234 1.014v.58c0 .494.085.913.256 1.257.173.341.413.601.72.78a2.11 2.11 0 0 0 1.069.264c.265 0 .503-.037.716-.111a1.54 1.54 0 0 0 .559-.341c.156-.153.277-.344.362-.571l.971.273a2.158 2.158 0 0 1-.515.869 2.52 2.52 0 0 1-.895.58 3.326 3.326 0 0 1-1.198.204Zm6.9 0c-.614 0-1.142-.145-1.586-.434a2.828 2.828 0 0 1-1.022-1.198c-.239-.508-.358-1.089-.358-1.743 0-.664.122-1.251.366-1.76.247-.511.591-.91 1.031-1.197.444-.29.961-.435 1.552-.435.46 0 .875.086 1.244.256s.672.409.908.716c.235.307.382.665.438 1.074h-1.005a1.555 1.555 0 0 0-.512-.793c-.261-.233-.613-.349-1.056-.349-.392 0-.736.102-1.032.307a2 2 0 0 0-.686.856c-.162.367-.243.797-.243 1.291 0 .506.08.946.239 1.321.162.375.389.666.682.874.295.207.642.311 1.04.311.261 0 .498-.045.711-.136a1.468 1.468 0 0 0 .857-1.006h1.005a2.327 2.327 0 0 1-.421 1.044 2.36 2.36 0 0 1-.883.733c-.363.179-.786.268-1.269.268Z"/><mask id="c" width="736" height="294" x="68" y="118" maskUnits="userSpaceOnUse" style="mask-type:alpha"><path fill="url(#b)" d="M0 0h736v294H0z" transform="translate(68 118)"/></mask><g mask="url(#c)"><path fill="#7F56D9" d="M84.68 216.835 68 222.521V412h736V153.458l-15.637 9.443h-16.68l-7.819 8.842h-10.425c-2.78 1.473-8.548 4.421-9.382 4.421-.834 0-6.255 1.768-8.862 2.652l-22.413 2.653-13.031 3.536-20.85-3.536-10.946-2.653-15.638 6.189h-16.158l-13.553-6.189c-5.212-.884-15.846-2.652-16.68-2.652-.834 0-7.645-1.769-10.946-2.653h-8.34l-19.807 2.653-17.201 2.652-7.819 6.189-23.456 2.653-11.989 2.652-13.552 4.421-13.031 10.61h-5.734l-15.637-2.652-15.117-7.958-13.031-4.421h-7.818l-13.553-2.652-19.286 2.652h-18.244l-18.243 4.421-18.244 5.305-13.552 5.305-14.595 2.653-19.807-2.653-15.638 2.653-15.637 2.652-14.595-2.652-19.808 6.189-16.679-3.537-16.68 3.537h-16.159l-17.201 2.652h-17.722l-17.723 2.653-17.201-5.305-17.201 2.652Z" opacity=".1"/></g><path stroke="#7F56D9" stroke-linecap="round" stroke-linejoin="round" stroke-width="2" d="m68 222.521 16.68-5.686 17.201-2.652 17.201 5.305 17.723-2.653h17.722l17.201-2.652h16.159l16.68-3.537 16.679 3.537 19.808-6.189 14.595 2.652 15.637-2.652 15.638-2.653 19.807 2.653 14.595-2.653 13.552-5.305 18.244-5.305 18.243-4.421h18.244l19.286-2.652 13.553 2.652h7.818l13.031 4.421 15.117 7.958 15.637 2.652h5.734l13.031-10.61 13.552-4.421 11.989-2.652 23.456-2.653 7.819-6.189 17.201-2.652 19.807-2.653h8.34c3.301.884 10.112 2.653 10.946 2.653.834 0 11.468 1.768 16.68 2.652l13.553 6.189h16.158l15.638-6.189 10.946 2.653 20.85 3.536 13.031-3.536 22.413-2.653c2.607-.884 8.028-2.652 8.862-2.652.834 0 6.602-2.948 9.382-4.421h10.425l7.819-8.842h16.68L804 153.458"/><path stroke="#B692F6" stroke-linecap="round" stroke-linejoin="round" stroke-width="2" d="m68 291.304 16.68-3.621 17.201-1.69 17.201 3.379 17.723-1.689h17.722l17.201-1.69h16.159l16.68-2.253 16.679 2.253 19.808-3.942 14.595 1.689 15.637-1.689 15.638-1.69 19.807 1.69 14.595-1.69 13.552-3.379 18.244-3.379 18.243-2.816h18.244l19.286-1.69 13.553 1.69h7.818l13.031 2.816 15.117 5.069 15.637 1.689h5.734l13.031-6.758 13.552-2.816 11.989-1.69 23.456-1.69 7.819-3.942 17.201-1.69 19.807-1.689h8.34c3.301.563 10.112 1.689 10.946 1.689.834 0 11.468 1.127 16.68 1.69l13.553 3.942h16.158l15.638-3.942 10.946 1.69 20.85 2.252 13.031-2.252 22.413-1.69c2.607-.563 8.028-1.69 8.862-1.69.834 0 6.602-1.877 9.382-2.816h10.425l7.819-5.632h16.68L804 247.312"/><path stroke="#6941C6" stroke-linecap="round" stroke-linejoin="round" stroke-width="2" d="m68 378.354 16.68-9.621 17.201-4.489 17.201 8.977 17.723-4.488h17.722l17.201-4.489h16.159l16.68-5.985 16.679 5.985 19.808-10.474 14.595 4.489 15.637-4.489 15.638-4.489 19.807 4.489 14.595-4.489 13.552-8.978 18.244-8.978 18.243-7.481h18.244l19.286-4.489 13.553 4.489h7.818l13.031 7.481 15.117 13.467 15.637 4.489h5.734l13.031-17.956 13.552-7.481 11.989-4.489 23.456-4.489 7.819-10.474 17.201-4.489 19.807-4.488h8.34c3.301 1.496 10.112 4.488 10.946 4.488.834 0 11.468 2.993 16.68 4.489l13.553 10.474h16.158l15.638-10.474 10.946 4.489 20.85 5.985 13.031-5.985 22.413-4.489c2.607-1.496 8.028-4.489 8.862-4.489.834 0 6.602-4.987 9.382-7.481h10.425l7.819-14.963h16.68L804 261.479"/></g><g filter="url(#d)"><rect width="272" height="272" x="660" y="232" fill="#fff" fill-opacity=".9" rx="136"/><path stroke="#F2F4F7" stroke-linecap="round" stroke-linejoin="round" stroke-width="16" d="M796 256c14.708 0 29.272 2.897 42.861 8.525a112.013 112.013 0 0 1 60.614 60.614 112.014 112.014 0 0 1-.001 85.722A111.994 111.994 0 0 1 796 480a111.996 111.996 0 0 1-79.196-32.804A112.006 112.006 0 0 1 684 368a111.996 111.996 0 0 1 32.804-79.196A112.006 112.006 0 0 1 796 256h0Z"/><path stroke="#6941C6" stroke-linecap="round" stroke-linejoin="round" stroke-width="16" d="M796 256a112.004 112.004 0 0 1 109.522 88.57 111.997 111.997 0 0 1-63.699 125.627 111.999 111.999 0 0 1-129.447-176.702"/><path stroke="#F2F4F7" stroke-linecap="round" stroke-linejoin="round" stroke-width="16" d="M796 276a92.007 92.007 0 0 1 65.054 26.946A92.008 92.008 0 0 1 888 368a92.007 92.007 0 0 1-26.946 65.054A92.008 92.008 0 0 1 796 460a92.007 92.007 0 0 1-65.054-26.946A91.993 91.993 0 0 1 704 368a92.007 92.007 0 0 1 26.946-65.054A91.993 91.993 0 0 1 796 276h0Z"/><path stroke="#7F56D9" stroke-linecap="round" stroke-linejoin="round" stroke-width="16" d="M796 276a92.001 92.001 0 0 1 89.064 115.057 92.001 92.001 0 0 1-180.004-36.98"/><path stroke="#F2F4F7" stroke-linecap="round" stroke-linejoin="round" stroke-width="16" d="M796 296a71.986 71.986 0 0 1 27.553 5.481 71.988 71.988 0 0 1 38.966 38.966 71.986 71.986 0 0 1 0 55.106 72.004 72.004 0 0 1-38.966 38.966 71.986 71.986 0 0 1-55.106 0 72.004 72.004 0 0 1-38.966-38.966 71.986 71.986 0 0 1 0-55.106 72.004 72.004 0 0 1 38.966-38.966A71.986 71.986 0 0 1 796 296h0Z"/><path stroke="#B692F6" stroke-linecap="round" stroke-linejoin="round" stroke-width="16" d="M796 296a72 72 0 1 1-60.983 110.277"/><path fill="#475467" d="M756.56 352h-1.631l3.664-10.182h1.775L764.032 352h-1.631l-2.878-8.332h-.08L756.56 352Zm.273-3.987h5.29v1.292h-5.29v-1.292Zm11.644 4.141c-.739 0-1.376-.167-1.909-.502a3.32 3.32 0 0 1-1.223-1.397c-.285-.593-.428-1.273-.428-2.038 0-.776.146-1.46.437-2.054a3.36 3.36 0 0 1 1.233-1.397c.531-.334 1.156-.502 1.875-.502.58 0 1.097.108 1.551.323a2.714 2.714 0 0 1 1.601 2.243h-1.447a1.735 1.735 0 0 0-.547-.925c-.282-.259-.659-.388-1.133-.388-.415 0-.778.109-1.089.328-.308.216-.549.524-.721.925-.172.398-.259.868-.259 1.412 0 .557.085 1.037.254 1.442.169.404.408.717.716.939.311.222.678.333 1.099.333.281 0 .537-.051.765-.154a1.57 1.57 0 0 0 .582-.452c.159-.196.27-.431.333-.706h1.447a2.804 2.804 0 0 1-.483 1.322 2.773 2.773 0 0 1-1.078.915c-.448.222-.973.333-1.576.333Zm8.291-7.79v1.193h-4.171v-1.193h4.171Zm-3.053-1.83h1.487v7.224c0 .288.043.505.129.651a.67.67 0 0 0 .333.293c.14.05.29.075.453.075.119 0 .223-.008.313-.025.089-.016.159-.03.209-.04l.268 1.228a2.925 2.925 0 0 1-.964.159 2.625 2.625 0 0 1-1.094-.208 1.874 1.874 0 0 1-.82-.677c-.209-.304-.314-.687-.314-1.148v-7.532Zm4.697 9.466v-7.636h1.487V352h-1.487Zm.751-8.815a.945.945 0 0 1-.666-.258.844.844 0 0 1-.274-.627.83.83 0 0 1 .274-.626.933.933 0 0 1 .666-.263c.259 0 .479.087.661.263a.822.822 0 0 1 .279.626.835.835 0 0 1-.279.627.927.927 0 0 1-.661.258Zm9.268 1.179L785.662 352h-1.591l-2.774-7.636h1.596l1.934 5.876h.08l1.928-5.876h1.596Zm4.429 7.79c-.753 0-1.401-.161-1.944-.482a3.278 3.278 0 0 1-1.253-1.367c-.292-.59-.437-1.281-.437-2.073 0-.783.145-1.472.437-2.069a3.403 3.403 0 0 1 1.233-1.397c.53-.334 1.15-.502 1.859-.502.431 0 .849.071 1.253.214a3.03 3.03 0 0 1 1.089.671c.322.305.575.701.761 1.188.185.484.278 1.073.278 1.765v.527h-6.07v-1.113h4.613c0-.391-.079-.738-.238-1.039a1.801 1.801 0 0 0-.671-.721 1.874 1.874 0 0 0-1.005-.264c-.417 0-.782.103-1.093.308a2.071 2.071 0 0 0-.716.796 2.294 2.294 0 0 0-.249 1.059v.87c0 .51.09.944.269 1.302.182.358.435.632.76.821.325.185.705.278 1.139.278.281 0 .538-.04.77-.119.232-.083.433-.206.602-.368a1.6 1.6 0 0 0 .388-.602l1.407.254a2.554 2.554 0 0 1-.607 1.089 2.945 2.945 0 0 1-1.089.721c-.434.169-.929.253-1.486.253Zm13.468-3.321v-4.469h1.491V352h-1.461v-1.322h-.08a2.389 2.389 0 0 1-.845 1.019c-.384.268-.863.402-1.437.402-.49 0-.925-.107-1.302-.323a2.263 2.263 0 0 1-.885-.969c-.212-.428-.318-.956-.318-1.586v-4.857h1.486v4.678c0 .52.144.935.433 1.243.288.308.662.462 1.123.462.279 0 .555-.069.83-.209.279-.139.509-.349.691-.631.186-.282.277-.64.274-1.074Zm9.211-2.605-1.347.239a1.603 1.603 0 0 0-.269-.493 1.33 1.33 0 0 0-.487-.382c-.206-.1-.462-.15-.771-.15-.421 0-.772.095-1.054.284-.281.185-.422.426-.422.721 0 .255.094.46.283.616.189.156.494.284.915.383l1.213.278c.703.163 1.226.413 1.571.751s.517.777.517 1.318c0 .457-.132.865-.398 1.223-.261.354-.628.633-1.098.835-.468.202-1.01.303-1.626.303-.855 0-1.553-.182-2.093-.547-.54-.368-.872-.89-.994-1.566l1.436-.219c.09.375.274.658.552.851.279.189.642.283 1.089.283.487 0 .877-.101 1.168-.303.292-.206.438-.456.438-.751a.782.782 0 0 0-.269-.602c-.175-.162-.445-.285-.81-.367l-1.293-.284c-.712-.162-1.239-.421-1.581-.775-.338-.355-.507-.804-.507-1.348 0-.45.126-.845.378-1.183.252-.338.6-.602 1.044-.79.444-.193.953-.289 1.526-.289.826 0 1.475.179 1.949.537.474.355.788.83.94 1.427Zm5.075 5.926c-.753 0-1.401-.161-1.944-.482a3.278 3.278 0 0 1-1.253-1.367c-.292-.59-.438-1.281-.438-2.073 0-.783.146-1.472.438-2.069a3.403 3.403 0 0 1 1.233-1.397c.53-.334 1.15-.502 1.859-.502.431 0 .849.071 1.253.214a3.04 3.04 0 0 1 1.089.671c.321.305.575.701.761 1.188.185.484.278 1.073.278 1.765v.527h-6.07v-1.113h4.613c0-.391-.079-.738-.238-1.039a1.801 1.801 0 0 0-.671-.721 1.876 1.876 0 0 0-1.005-.264c-.417 0-.782.103-1.093.308a2.071 2.071 0 0 0-.716.796 2.294 2.294 0 0 0-.249 1.059v.87c0 .51.09.944.268 1.302.183.358.436.632.761.821.325.185.704.278 1.139.278.281 0 .538-.04.77-.119.232-.083.433-.206.602-.368a1.6 1.6 0 0 0 .388-.602l1.407.254a2.554 2.554 0 0 1-.607 1.089 2.945 2.945 0 0 1-1.089.721c-.434.169-.929.253-1.486.253Zm4.925-.154v-7.636h1.437v1.213h.08c.139-.411.384-.734.735-.97a2.113 2.113 0 0 1 1.204-.358 7.192 7.192 0 0 1 .631.035v1.422a2.609 2.609 0 0 0-.318-.055 3.071 3.071 0 0 0-.458-.035 1.94 1.94 0 0 0-.939.224 1.67 1.67 0 0 0-.647.612 1.652 1.652 0 0 0-.238.885V352h-1.487Zm11.096-5.772-1.348.239a1.579 1.579 0 0 0-.268-.493 1.33 1.33 0 0 0-.487-.382c-.206-.1-.463-.15-.771-.15-.421 0-.772.095-1.054.284-.282.185-.422.426-.422.721 0 .255.094.46.283.616.189.156.494.284.915.383l1.213.278c.702.163 1.226.413 1.571.751.344.338.517.777.517 1.318 0 .457-.133.865-.398 1.223-.262.354-.628.633-1.099.835-.467.202-1.009.303-1.625.303-.855 0-1.553-.182-2.093-.547-.541-.368-.872-.89-.995-1.566l1.437-.219c.09.375.274.658.552.851.278.189.641.283 1.089.283.487 0 .876-.101 1.168-.303.292-.206.438-.456.438-.751a.782.782 0 0 0-.269-.602c-.176-.162-.446-.285-.81-.367l-1.293-.284c-.712-.162-1.239-.421-1.581-.775-.338-.355-.507-.804-.507-1.348 0-.45.126-.845.378-1.183.252-.338.6-.602 1.044-.79.444-.193.953-.289 1.526-.289.825 0 1.475.179 1.949.537.474.355.787.83.94 1.427Z"/><path fill="#101828" d="M766.193 367.182V389h-3.952v-17.972h-.128l-5.103 3.26v-3.623l5.422-3.483h3.761Zm8.909 18.835-.138 1.172c-.1.895-.277 1.804-.533 2.727a34.077 34.077 0 0 1-.789 2.568c-.276.781-.5 1.395-.671 1.843h-2.599l.405-1.769c.177-.745.348-1.584.511-2.514.163-.93.274-1.875.33-2.834l.075-1.193h3.409Zm11.492 3.398c-1.754 0-3.26-.443-4.517-1.331-1.25-.895-2.212-2.184-2.887-3.867-.667-1.691-1.001-3.726-1.001-6.105.007-2.379.344-4.403 1.012-6.072.675-1.676 1.637-2.955 2.887-3.835 1.257-.881 2.759-1.321 4.506-1.321 1.748 0 3.25.44 4.507 1.321 1.257.88 2.219 2.159 2.887 3.835.675 1.676 1.012 3.7 1.012 6.072 0 2.387-.337 4.425-1.012 6.115-.668 1.684-1.63 2.969-2.887 3.857-1.25.888-2.752 1.331-4.507 1.331Zm0-3.334c1.364 0 2.44-.671 3.228-2.014.796-1.349 1.194-3.334 1.194-5.955 0-1.733-.182-3.189-.544-4.368-.362-1.179-.873-2.066-1.534-2.663a3.357 3.357 0 0 0-2.344-.906c-1.356 0-2.429.675-3.217 2.025-.788 1.342-1.186 3.313-1.193 5.912-.007 1.74.167 3.203.522 4.389.362 1.186.873 2.081 1.534 2.685.66.597 1.445.895 2.354.895Zm20.01 3.334c-1.754 0-3.26-.443-4.517-1.331-1.25-.895-2.212-2.184-2.887-3.867-.668-1.691-1.001-3.726-1.001-6.105.007-2.379.344-4.403 1.012-6.072.674-1.676 1.637-2.955 2.887-3.835 1.257-.881 2.759-1.321 4.506-1.321 1.747 0 3.249.44 4.507 1.321 1.257.88 2.219 2.159 2.887 3.835.674 1.676 1.012 3.7 1.012 6.072 0 2.387-.338 4.425-1.012 6.115-.668 1.684-1.63 2.969-2.887 3.857-1.25.888-2.753 1.331-4.507 1.331Zm0-3.334c1.364 0 2.44-.671 3.228-2.014.796-1.349 1.193-3.334 1.193-5.955 0-1.733-.181-3.189-.543-4.368-.362-1.179-.874-2.066-1.534-2.663a3.36 3.36 0 0 0-2.344-.906c-1.356 0-2.429.675-3.217 2.025-.789 1.342-1.186 3.313-1.193 5.912-.007 1.74.167 3.203.522 4.389.362 1.186.873 2.081 1.534 2.685.66.597 1.445.895 2.354.895Zm20.01 3.334c-1.754 0-3.26-.443-4.517-1.331-1.25-.895-2.213-2.184-2.887-3.867-.668-1.691-1.002-3.726-1.002-6.105.007-2.379.345-4.403 1.012-6.072.675-1.676 1.638-2.955 2.888-3.835 1.257-.881 2.759-1.321 4.506-1.321 1.747 0 3.249.44 4.506 1.321 1.257.88 2.22 2.159 2.887 3.835.675 1.676 1.012 3.7 1.012 6.072 0 2.387-.337 4.425-1.012 6.115-.667 1.684-1.63 2.969-2.887 3.857-1.25.888-2.752 1.331-4.506 1.331Zm0-3.334c1.364 0 2.44-.671 3.228-2.014.795-1.349 1.193-3.334 1.193-5.955 0-1.733-.181-3.189-.543-4.368-.362-1.179-.874-2.066-1.534-2.663a3.36 3.36 0 0 0-2.344-.906c-1.357 0-2.429.675-3.217 2.025-.789 1.342-1.187 3.313-1.194 5.912-.007 1.74.167 3.203.522 4.389.363 1.186.874 2.081 1.534 2.685.661.597 1.446.895 2.355.895Z"/></g><defs><filter id="a" width="872" height="532" x="0" y="0" color-interpolation-filters="sRGB" filterUnits="userSpaceOnUse"><feFlood flood-opacity="0" result="BackgroundImageFix"/><feColorMatrix in="SourceAlpha" result="hardAlpha" values="0 0 0 0 0 0 0 0 0 0 0 0 0 0 0 0 0 0 127 0"/><feMorphology in="SourceAlpha" radius="12" result="effect1_dropShadow_202_4607"/><feOffset dy="24"/><feGaussianBlur stdDeviation="24"/><feComposite in2="hardAlpha" operator="out"/><feColorMatrix values="0 0 0 0 0.0625882 0 0 0 0 0.0926346 0 0 0 0 0.15702 0 0 0 0.18 0"/><feBlend in2="BackgroundImageFix" result="effect1_dropShadow_202_4607"/><feBlend in="SourceGraphic" in2="effect1_dropShadow_202_4607" result="shape"/></filter><filter id="d" width="288" height="288" x="652" y="224" color-interpolation-filters="sRGB" filterUnits="userSpaceOnUse"><feFlood flood-opacity="0" result="BackgroundImageFix"/><feGaussianBlur in="BackgroundImageFix" stdDeviation="4"/><feComposite in2="SourceAlpha" operator="in" result="effect1_backgroundBlur_202_4607"/><feBlend in="SourceGraphic" in2="effect1_backgroundBlur_202_4607" result="shape"/></filter><linearGradient id="b" x1="368" x2="368" y1="0" y2="294" gradientUnits="userSpaceOnUse"><stop/><stop offset="1" stop-opacity="0"/></linearGradient></defs></svg>